<mxfile host="app.diagrams.net" modified="2023-11-08T10:08:11.085Z" agent="Mozilla/5.0 (X11; Ubuntu; Linux x86_64; rv:109.0) Gecko/20100101 Firefox/118.0" etag="VM2hiATw-s66zcp27PgW" version="22.0.8" type="device">
  <diagram name="Page-1" id="naOOaUHlWIg6g84lMF8M">
    <mxGraphModel dx="4148" dy="2119" grid="1" gridSize="10" guides="1" tooltips="1" connect="1" arrows="1" fold="1" page="1" pageScale="1" pageWidth="600" pageHeight="475" math="0" shadow="0">
      <root>
        <mxCell id="0" />
        <mxCell id="1" parent="0" />
        <mxCell id="oj8sMwRd8QXnQj2qeah--25" value="" style="rounded=0;whiteSpace=wrap;html=1;fillColor=#62a0ea;strokeColor=#999999;strokeWidth=6;" vertex="1" parent="1">
          <mxGeometry x="1760" y="310" width="700" height="100" as="geometry" />
        </mxCell>
        <mxCell id="oj8sMwRd8QXnQj2qeah--24" value="" style="rounded=0;whiteSpace=wrap;html=1;fillColor=#D95D5D;strokeColor=#999999;strokeWidth=6;" vertex="1" parent="1">
          <mxGeometry x="1840" y="40" width="540" height="100" as="geometry" />
        </mxCell>
        <mxCell id="HKGf76yf_YqV7RcBEFJk-47" style="edgeStyle=orthogonalEdgeStyle;rounded=0;orthogonalLoop=1;jettySize=auto;html=1;exitX=0.5;exitY=1;exitDx=0;exitDy=0;strokeWidth=10;strokeColor=#67AB9F;endSize=12;" parent="1" source="HKGf76yf_YqV7RcBEFJk-2" target="HKGf76yf_YqV7RcBEFJk-3" edge="1">
          <mxGeometry relative="1" as="geometry">
            <Array as="points">
              <mxPoint x="582" y="190" />
            </Array>
          </mxGeometry>
        </mxCell>
        <mxCell id="HKGf76yf_YqV7RcBEFJk-2" value="" style="rounded=0;whiteSpace=wrap;html=1;fillColor=#1A1A1A;strokeColor=#191919;strokeWidth=6;" parent="1" vertex="1">
          <mxGeometry x="280" y="-180" width="570" height="370" as="geometry" />
        </mxCell>
        <mxCell id="HKGf76yf_YqV7RcBEFJk-3" value="" style="rounded=0;whiteSpace=wrap;html=1;fillColor=#1A1A1A;strokeColor=#62a0ea;strokeWidth=6;dashed=1;" parent="1" vertex="1">
          <mxGeometry x="337" y="270" width="490" height="80" as="geometry" />
        </mxCell>
        <mxCell id="HKGf76yf_YqV7RcBEFJk-46" style="edgeStyle=orthogonalEdgeStyle;rounded=0;orthogonalLoop=1;jettySize=auto;html=1;exitX=1;exitY=0.5;exitDx=0;exitDy=0;entryX=0;entryY=0.5;entryDx=0;entryDy=0;strokeWidth=10;strokeColor=#67AB9F;" parent="1" source="HKGf76yf_YqV7RcBEFJk-9" target="HKGf76yf_YqV7RcBEFJk-2" edge="1">
          <mxGeometry relative="1" as="geometry">
            <Array as="points">
              <mxPoint x="200" y="-260" />
              <mxPoint x="230" y="-260" />
              <mxPoint x="230" y="5" />
            </Array>
          </mxGeometry>
        </mxCell>
        <mxCell id="HKGf76yf_YqV7RcBEFJk-9" value="" style="rounded=0;whiteSpace=wrap;html=1;fillColor=none;strokeColor=#813d9c;strokeWidth=6;" parent="1" vertex="1">
          <mxGeometry x="170" y="-365" width="30" height="185" as="geometry" />
        </mxCell>
        <mxCell id="HKGf76yf_YqV7RcBEFJk-17" value="&lt;font style=&quot;font-size: 60px;&quot; data-font-src=&quot;https://fonts.googleapis.com/css?family=Lexend&quot; face=&quot;Lexend&quot;&gt;&lt;b style=&quot;font-size: 60px;&quot;&gt;Non-Trauma Pathway&lt;/b&gt;&lt;br style=&quot;font-size: 60px;&quot;&gt;&lt;/font&gt;" style="text;html=1;strokeColor=none;fillColor=none;align=center;verticalAlign=middle;whiteSpace=wrap;rounded=0;fontSize=60;" parent="1" vertex="1">
          <mxGeometry x="1755" y="350" width="710" height="30" as="geometry" />
        </mxCell>
        <mxCell id="HKGf76yf_YqV7RcBEFJk-18" value="&lt;font style=&quot;font-size: 60px;&quot; data-font-src=&quot;https://fonts.googleapis.com/css?family=Lexend&quot;&gt;&lt;b style=&quot;font-size: 60px;&quot;&gt;Trauma Pathway&lt;/b&gt;&lt;br style=&quot;font-size: 60px;&quot;&gt;&lt;/font&gt;" style="text;html=1;strokeColor=none;fillColor=none;align=center;verticalAlign=middle;whiteSpace=wrap;rounded=0;fontSize=60;fontFamily=Lexend;fontSource=https%3A%2F%2Ffonts.googleapis.com%2Fcss%3Ffamily%3DLexend;" parent="1" vertex="1">
          <mxGeometry x="1032" y="75" width="2156" height="30" as="geometry" />
        </mxCell>
        <mxCell id="HKGf76yf_YqV7RcBEFJk-30" value="" style="rounded=0;whiteSpace=wrap;html=1;fillColor=none;strokeColor=#813d9c;strokeWidth=6;" parent="1" vertex="1">
          <mxGeometry x="3283" y="133" width="30" height="185" as="geometry" />
        </mxCell>
        <mxCell id="oj8sMwRd8QXnQj2qeah--5" value="&lt;font style=&quot;font-size: 30px;&quot; face=&quot;Lexend&quot; data-font-src=&quot;https://fonts.googleapis.com/css?family=Lexend&quot;&gt;&lt;b&gt;Exit&lt;/b&gt;&lt;/font&gt;" style="text;html=1;strokeColor=none;fillColor=none;align=center;verticalAlign=middle;whiteSpace=wrap;rounded=0;fontSize=60;" vertex="1" parent="1">
          <mxGeometry x="3280" y="190" width="160" height="70" as="geometry" />
        </mxCell>
        <mxCell id="oj8sMwRd8QXnQj2qeah--6" value="&lt;font size=&quot;1&quot; face=&quot;Lexend&quot;&gt;&lt;b style=&quot;font-size: 30px;&quot;&gt;Entrance&lt;/b&gt;&lt;/font&gt;" style="text;html=1;strokeColor=none;fillColor=none;align=center;verticalAlign=middle;whiteSpace=wrap;rounded=0;fontSize=60;strokeWidth=30;" vertex="1" parent="1">
          <mxGeometry y="-307.5" width="160" height="70" as="geometry" />
        </mxCell>
        <mxCell id="oj8sMwRd8QXnQj2qeah--9" value="&lt;font style=&quot;font-size: 40px;&quot; face=&quot;Lexend&quot;&gt;&lt;b&gt;Triage Waiting Room&lt;br&gt;&lt;/b&gt;&lt;/font&gt;" style="text;html=1;strokeColor=none;fillColor=none;align=center;verticalAlign=middle;whiteSpace=wrap;rounded=0;fontSize=60;" vertex="1" parent="1">
          <mxGeometry x="362" y="-225" width="440" height="30" as="geometry" />
        </mxCell>
        <mxCell id="oj8sMwRd8QXnQj2qeah--10" value="&lt;font style=&quot;font-size: 40px;&quot; face=&quot;Lexend&quot;&gt;&lt;b&gt;Triage Rooms&lt;br&gt;&lt;/b&gt;&lt;/font&gt;" style="text;html=1;strokeColor=none;fillColor=none;align=center;verticalAlign=middle;whiteSpace=wrap;rounded=0;fontSize=60;" vertex="1" parent="1">
          <mxGeometry x="362" y="370" width="440" height="30" as="geometry" />
        </mxCell>
        <mxCell id="oj8sMwRd8QXnQj2qeah--32" value="" style="group" vertex="1" connectable="0" parent="1">
          <mxGeometry x="866" y="410" width="2460" height="500" as="geometry" />
        </mxCell>
        <mxCell id="oj8sMwRd8QXnQj2qeah--4" value="" style="rounded=0;whiteSpace=wrap;html=1;fillColor=#deddda;strokeColor=#999999;strokeWidth=6;labelBackgroundColor=#191919;" vertex="1" parent="oj8sMwRd8QXnQj2qeah--32">
          <mxGeometry width="2460" height="500" as="geometry" />
        </mxCell>
        <mxCell id="HKGf76yf_YqV7RcBEFJk-20" value="" style="rounded=0;whiteSpace=wrap;html=1;fillColor=#1A1A1A;strokeColor=#000000;strokeWidth=6;" parent="oj8sMwRd8QXnQj2qeah--32" vertex="1">
          <mxGeometry x="110" y="70" width="590" height="210" as="geometry" />
        </mxCell>
        <mxCell id="HKGf76yf_YqV7RcBEFJk-21" value="" style="rounded=0;whiteSpace=wrap;html=1;fillColor=#1A1A1A;strokeColor=#62a0ea;strokeWidth=6;dashed=1;" parent="oj8sMwRd8QXnQj2qeah--32" vertex="1">
          <mxGeometry x="110" y="355" width="590" height="70" as="geometry" />
        </mxCell>
        <mxCell id="HKGf76yf_YqV7RcBEFJk-45" style="edgeStyle=orthogonalEdgeStyle;rounded=0;orthogonalLoop=1;jettySize=auto;html=1;exitX=0.5;exitY=1;exitDx=0;exitDy=0;entryX=0.5;entryY=0;entryDx=0;entryDy=0;strokeWidth=15;strokeColor=#3584e4;" parent="oj8sMwRd8QXnQj2qeah--32" source="HKGf76yf_YqV7RcBEFJk-20" target="HKGf76yf_YqV7RcBEFJk-21" edge="1">
          <mxGeometry relative="1" as="geometry" />
        </mxCell>
        <mxCell id="HKGf76yf_YqV7RcBEFJk-22" value="" style="rounded=0;whiteSpace=wrap;html=1;fillColor=#1A1A1A;strokeColor=#000000;strokeWidth=6;" parent="oj8sMwRd8QXnQj2qeah--32" vertex="1">
          <mxGeometry x="980" y="70" width="560" height="210" as="geometry" />
        </mxCell>
        <mxCell id="oj8sMwRd8QXnQj2qeah--26" style="edgeStyle=orthogonalEdgeStyle;rounded=0;orthogonalLoop=1;jettySize=auto;html=1;exitX=1;exitY=0.5;exitDx=0;exitDy=0;entryX=0;entryY=0.5;entryDx=0;entryDy=0;strokeWidth=15;strokeColor=#3399FF;" edge="1" parent="oj8sMwRd8QXnQj2qeah--32" source="HKGf76yf_YqV7RcBEFJk-21" target="HKGf76yf_YqV7RcBEFJk-22">
          <mxGeometry relative="1" as="geometry" />
        </mxCell>
        <mxCell id="HKGf76yf_YqV7RcBEFJk-23" value="" style="rounded=0;whiteSpace=wrap;html=1;fillColor=#1A1A1A;strokeColor=#62a0ea;strokeWidth=6;dashed=1;" parent="oj8sMwRd8QXnQj2qeah--32" vertex="1">
          <mxGeometry x="980" y="355" width="560" height="70" as="geometry" />
        </mxCell>
        <mxCell id="HKGf76yf_YqV7RcBEFJk-43" style="edgeStyle=orthogonalEdgeStyle;rounded=0;orthogonalLoop=1;jettySize=auto;html=1;exitX=0.5;exitY=1;exitDx=0;exitDy=0;entryX=0.5;entryY=0;entryDx=0;entryDy=0;strokeWidth=15;strokeColor=#3584e4;" parent="oj8sMwRd8QXnQj2qeah--32" source="HKGf76yf_YqV7RcBEFJk-22" target="HKGf76yf_YqV7RcBEFJk-23" edge="1">
          <mxGeometry relative="1" as="geometry" />
        </mxCell>
        <mxCell id="HKGf76yf_YqV7RcBEFJk-26" value="" style="rounded=0;whiteSpace=wrap;html=1;fillColor=#1A1A1A;strokeColor=#000000;strokeWidth=6;" parent="oj8sMwRd8QXnQj2qeah--32" vertex="1">
          <mxGeometry x="1810" y="70" width="590" height="210" as="geometry" />
        </mxCell>
        <mxCell id="oj8sMwRd8QXnQj2qeah--28" style="edgeStyle=orthogonalEdgeStyle;rounded=0;orthogonalLoop=1;jettySize=auto;html=1;exitX=1;exitY=0.25;exitDx=0;exitDy=0;entryX=0;entryY=0.5;entryDx=0;entryDy=0;strokeWidth=15;strokeColor=#3399FF;" edge="1" parent="oj8sMwRd8QXnQj2qeah--32" source="HKGf76yf_YqV7RcBEFJk-23" target="HKGf76yf_YqV7RcBEFJk-26">
          <mxGeometry relative="1" as="geometry">
            <Array as="points">
              <mxPoint x="1724" y="373" />
              <mxPoint x="1724" y="175" />
            </Array>
          </mxGeometry>
        </mxCell>
        <mxCell id="HKGf76yf_YqV7RcBEFJk-27" value="" style="rounded=0;whiteSpace=wrap;html=1;fillColor=#1A1A1A;strokeColor=#62a0ea;strokeWidth=6;dashed=1;" parent="oj8sMwRd8QXnQj2qeah--32" vertex="1">
          <mxGeometry x="1810" y="355" width="590" height="70" as="geometry" />
        </mxCell>
        <mxCell id="HKGf76yf_YqV7RcBEFJk-41" style="edgeStyle=orthogonalEdgeStyle;rounded=0;orthogonalLoop=1;jettySize=auto;html=1;exitX=0.5;exitY=1;exitDx=0;exitDy=0;entryX=0.5;entryY=0;entryDx=0;entryDy=0;strokeWidth=15;strokeColor=#3584e4;" parent="oj8sMwRd8QXnQj2qeah--32" source="HKGf76yf_YqV7RcBEFJk-26" target="HKGf76yf_YqV7RcBEFJk-27" edge="1">
          <mxGeometry relative="1" as="geometry" />
        </mxCell>
        <mxCell id="oj8sMwRd8QXnQj2qeah--15" value="&lt;font face=&quot;Lexend&quot; style=&quot;font-size: 40px;&quot;&gt;&lt;b&gt;Registration Cubicles&lt;br&gt;&lt;/b&gt;&lt;/font&gt;" style="text;html=1;strokeColor=none;fillColor=none;align=center;verticalAlign=middle;whiteSpace=wrap;rounded=0;fontSize=60;" vertex="1" parent="oj8sMwRd8QXnQj2qeah--32">
          <mxGeometry x="110" y="445" width="580" height="30" as="geometry" />
        </mxCell>
        <mxCell id="oj8sMwRd8QXnQj2qeah--16" value="&lt;font face=&quot;Lexend&quot; style=&quot;font-size: 40px;&quot;&gt;&lt;b&gt;Examination Bays&lt;br&gt;&lt;/b&gt;&lt;/font&gt;" style="text;html=1;strokeColor=none;fillColor=none;align=center;verticalAlign=middle;whiteSpace=wrap;rounded=0;fontSize=60;" vertex="1" parent="oj8sMwRd8QXnQj2qeah--32">
          <mxGeometry x="970" y="445" width="580" height="30" as="geometry" />
        </mxCell>
        <mxCell id="oj8sMwRd8QXnQj2qeah--17" value="&lt;font face=&quot;Lexend&quot; style=&quot;font-size: 40px;&quot;&gt;&lt;b&gt;Registration Waiting Area&lt;br&gt;&lt;/b&gt;&lt;/font&gt;" style="text;html=1;strokeColor=none;fillColor=none;align=center;verticalAlign=middle;whiteSpace=wrap;rounded=0;fontSize=60;" vertex="1" parent="oj8sMwRd8QXnQj2qeah--32">
          <mxGeometry x="110" y="19" width="580" height="30" as="geometry" />
        </mxCell>
        <mxCell id="oj8sMwRd8QXnQj2qeah--19" value="&lt;font face=&quot;Lexend&quot; style=&quot;font-size: 40px;&quot;&gt;&lt;b&gt;Examination Waiting Area&lt;br&gt;&lt;/b&gt;&lt;/font&gt;" style="text;html=1;strokeColor=none;fillColor=none;align=center;verticalAlign=middle;whiteSpace=wrap;rounded=0;fontSize=60;" vertex="1" parent="oj8sMwRd8QXnQj2qeah--32">
          <mxGeometry x="971" y="16" width="580" height="30" as="geometry" />
        </mxCell>
        <mxCell id="oj8sMwRd8QXnQj2qeah--20" value="&lt;font face=&quot;Lexend&quot; style=&quot;font-size: 40px;&quot;&gt;&lt;b&gt;Treatment Waiting Area&lt;br&gt;&lt;/b&gt;&lt;/font&gt;" style="text;html=1;strokeColor=none;fillColor=none;align=center;verticalAlign=middle;whiteSpace=wrap;rounded=0;fontSize=60;" vertex="1" parent="oj8sMwRd8QXnQj2qeah--32">
          <mxGeometry x="1811" y="19" width="580" height="30" as="geometry" />
        </mxCell>
        <mxCell id="oj8sMwRd8QXnQj2qeah--21" value="&lt;font style=&quot;font-size: 40px;&quot;&gt;&lt;b&gt;Treatment Cubicles&lt;br&gt;&lt;/b&gt;&lt;/font&gt;" style="text;html=1;strokeColor=none;fillColor=none;align=center;verticalAlign=middle;whiteSpace=wrap;rounded=0;fontSize=60;fontFamily=Lexend;fontSource=https%3A%2F%2Ffonts.googleapis.com%2Fcss%3Ffamily%3DLexend;" vertex="1" parent="oj8sMwRd8QXnQj2qeah--32">
          <mxGeometry x="1823" y="438" width="580" height="42" as="geometry" />
        </mxCell>
        <mxCell id="oj8sMwRd8QXnQj2qeah--27" style="edgeStyle=orthogonalEdgeStyle;rounded=0;orthogonalLoop=1;jettySize=auto;html=1;exitX=1;exitY=0.5;exitDx=0;exitDy=0;entryX=0;entryY=0.5;entryDx=0;entryDy=0;strokeWidth=15;strokeColor=#3399FF;" edge="1" parent="1" source="HKGf76yf_YqV7RcBEFJk-3" target="HKGf76yf_YqV7RcBEFJk-20">
          <mxGeometry relative="1" as="geometry">
            <mxPoint x="840" y="307.5" as="sourcePoint" />
            <mxPoint x="1003" y="-297.5" as="targetPoint" />
            <Array as="points">
              <mxPoint x="827" y="308" />
              <mxPoint x="890" y="308" />
              <mxPoint x="890" y="585" />
            </Array>
          </mxGeometry>
        </mxCell>
        <mxCell id="oj8sMwRd8QXnQj2qeah--3" value="" style="rounded=0;whiteSpace=wrap;html=1;fillColor=#DEDDDA;strokeColor=#999999;strokeWidth=6;" vertex="1" parent="1">
          <mxGeometry x="866" y="-460" width="2450" height="500" as="geometry" />
        </mxCell>
        <mxCell id="oj8sMwRd8QXnQj2qeah--33" value="" style="edgeStyle=orthogonalEdgeStyle;rounded=0;orthogonalLoop=1;jettySize=auto;html=1;strokeColor=#FF8787;strokeWidth=15;" edge="1" parent="1" source="HKGf76yf_YqV7RcBEFJk-6" target="HKGf76yf_YqV7RcBEFJk-7">
          <mxGeometry relative="1" as="geometry" />
        </mxCell>
        <mxCell id="HKGf76yf_YqV7RcBEFJk-6" value="" style="rounded=0;whiteSpace=wrap;html=1;fillColor=#1A1A1A;strokeColor=#000000;strokeWidth=6;" parent="1" vertex="1">
          <mxGeometry x="966" y="-380" width="590" height="225" as="geometry" />
        </mxCell>
        <mxCell id="HKGf76yf_YqV7RcBEFJk-7" value="" style="rounded=0;whiteSpace=wrap;html=1;fillColor=#1A1A1A;strokeColor=#62a0ea;strokeWidth=6;dashed=1;" parent="1" vertex="1">
          <mxGeometry x="966" y="-90" width="590" height="70" as="geometry" />
        </mxCell>
        <mxCell id="HKGf76yf_YqV7RcBEFJk-12" value="" style="rounded=0;whiteSpace=wrap;html=1;fillColor=#1A1A1A;strokeColor=#000000;strokeWidth=6;" parent="1" vertex="1">
          <mxGeometry x="2616" y="-380" width="640" height="220" as="geometry" />
        </mxCell>
        <mxCell id="HKGf76yf_YqV7RcBEFJk-37" style="edgeStyle=orthogonalEdgeStyle;rounded=0;orthogonalLoop=1;jettySize=auto;html=1;exitX=1;exitY=0.5;exitDx=0;exitDy=0;entryX=0;entryY=0.5;entryDx=0;entryDy=0;strokeWidth=15;strokeColor=#FF8787;endSize=12;" parent="1" source="HKGf76yf_YqV7RcBEFJk-7" target="HKGf76yf_YqV7RcBEFJk-12" edge="1">
          <mxGeometry relative="1" as="geometry">
            <Array as="points">
              <mxPoint x="1556" y="-50" />
              <mxPoint x="2376" y="-50" />
              <mxPoint x="2376" y="-270" />
            </Array>
          </mxGeometry>
        </mxCell>
        <mxCell id="HKGf76yf_YqV7RcBEFJk-13" value="" style="rounded=0;whiteSpace=wrap;html=1;fillColor=#1A1A1A;strokeColor=#62a0ea;strokeWidth=6;dashed=1;" parent="1" vertex="1">
          <mxGeometry x="2636" y="-90" width="640" height="70" as="geometry" />
        </mxCell>
        <mxCell id="HKGf76yf_YqV7RcBEFJk-38" style="edgeStyle=orthogonalEdgeStyle;rounded=0;orthogonalLoop=1;jettySize=auto;html=1;exitX=0.531;exitY=1.01;exitDx=0;exitDy=0;strokeWidth=15;strokeColor=#FF8787;exitPerimeter=0;" parent="1" source="HKGf76yf_YqV7RcBEFJk-12" target="HKGf76yf_YqV7RcBEFJk-13" edge="1">
          <mxGeometry relative="1" as="geometry" />
        </mxCell>
        <mxCell id="oj8sMwRd8QXnQj2qeah--11" value="&lt;font style=&quot;font-size: 40px;&quot; face=&quot;Lexend&quot;&gt;&lt;b&gt;Stabilisation Waiting Area&lt;br&gt;&lt;/b&gt;&lt;/font&gt;" style="text;html=1;strokeColor=none;fillColor=none;align=center;verticalAlign=middle;whiteSpace=wrap;rounded=0;fontSize=60;" vertex="1" parent="1">
          <mxGeometry x="941" y="-430" width="580" height="30" as="geometry" />
        </mxCell>
        <mxCell id="oj8sMwRd8QXnQj2qeah--12" value="&lt;font style=&quot;font-size: 40px;&quot; face=&quot;Lexend&quot;&gt;&lt;b&gt;Treatment Waiting Area&lt;br&gt;&lt;/b&gt;&lt;/font&gt;" style="text;html=1;strokeColor=none;fillColor=none;align=center;verticalAlign=middle;whiteSpace=wrap;rounded=0;fontSize=60;" vertex="1" parent="1">
          <mxGeometry x="2666" y="-430" width="580" height="30" as="geometry" />
        </mxCell>
        <mxCell id="oj8sMwRd8QXnQj2qeah--14" value="&lt;font face=&quot;Lexend&quot; style=&quot;font-size: 40px;&quot;&gt;&lt;b&gt;Stabilisation Bays&lt;br&gt;&lt;/b&gt;&lt;/font&gt;" style="text;html=1;strokeColor=none;fillColor=none;align=center;verticalAlign=middle;whiteSpace=wrap;rounded=0;fontSize=60;" vertex="1" parent="1">
          <mxGeometry x="944" y="-3" width="580" height="30" as="geometry" />
        </mxCell>
        <mxCell id="oj8sMwRd8QXnQj2qeah--35" value="" style="edgeStyle=orthogonalEdgeStyle;rounded=0;orthogonalLoop=1;jettySize=auto;html=1;exitX=1;exitY=0.5;exitDx=0;exitDy=0;fontColor=#3399FF;strokeWidth=15;strokeColor=#3399FF;dashed=1;dashPattern=1 1;" edge="1" parent="1" source="HKGf76yf_YqV7RcBEFJk-23">
          <mxGeometry relative="1" as="geometry">
            <mxPoint x="2430" y="800" as="sourcePoint" />
            <mxPoint x="3270" y="220" as="targetPoint" />
            <Array as="points">
              <mxPoint x="2430" y="800" />
              <mxPoint x="2430" y="780" />
              <mxPoint x="2590" y="780" />
              <mxPoint x="2590" y="220" />
            </Array>
          </mxGeometry>
        </mxCell>
        <mxCell id="oj8sMwRd8QXnQj2qeah--13" value="&lt;font style=&quot;font-size: 40px;&quot; face=&quot;Lexend&quot;&gt;&lt;b&gt;Treatment Cubicles&lt;br&gt;&lt;/b&gt;&lt;/font&gt;" style="text;html=1;strokeColor=none;fillColor=none;align=center;verticalAlign=middle;whiteSpace=wrap;rounded=0;fontSize=60;" vertex="1" parent="1">
          <mxGeometry x="2656" y="-9" width="580" height="30" as="geometry" />
        </mxCell>
        <mxCell id="HKGf76yf_YqV7RcBEFJk-39" style="edgeStyle=orthogonalEdgeStyle;rounded=0;orthogonalLoop=1;jettySize=auto;html=1;exitX=1;exitY=0.5;exitDx=0;exitDy=0;entryX=0.5;entryY=0;entryDx=0;entryDy=0;strokeWidth=15;strokeColor=#FF8787;endSize=12;" parent="1" source="HKGf76yf_YqV7RcBEFJk-13" target="HKGf76yf_YqV7RcBEFJk-30" edge="1">
          <mxGeometry relative="1" as="geometry">
            <Array as="points">
              <mxPoint x="3276" y="-60" />
              <mxPoint x="3298" y="-60" />
            </Array>
          </mxGeometry>
        </mxCell>
        <mxCell id="oj8sMwRd8QXnQj2qeah--38" style="edgeStyle=orthogonalEdgeStyle;rounded=0;orthogonalLoop=1;jettySize=auto;html=1;exitX=1;exitY=0.5;exitDx=0;exitDy=0;entryX=0.75;entryY=1;entryDx=0;entryDy=0;strokeColor=#3399FF;strokeWidth=15;" edge="1" parent="1" source="HKGf76yf_YqV7RcBEFJk-27" target="HKGf76yf_YqV7RcBEFJk-30">
          <mxGeometry relative="1" as="geometry">
            <Array as="points">
              <mxPoint x="3306" y="800" />
            </Array>
          </mxGeometry>
        </mxCell>
        <mxCell id="HKGf76yf_YqV7RcBEFJk-48" style="edgeStyle=orthogonalEdgeStyle;rounded=0;orthogonalLoop=1;jettySize=auto;html=1;exitX=1;exitY=0.5;exitDx=0;exitDy=0;entryX=0;entryY=0.5;entryDx=0;entryDy=0;strokeWidth=15;strokeColor=#FF8787;endSize=12;" parent="1" source="HKGf76yf_YqV7RcBEFJk-3" target="HKGf76yf_YqV7RcBEFJk-6" edge="1">
          <mxGeometry relative="1" as="geometry">
            <Array as="points">
              <mxPoint x="890" y="310" />
              <mxPoint x="890" y="-267" />
            </Array>
          </mxGeometry>
        </mxCell>
      </root>
    </mxGraphModel>
  </diagram>
</mxfile>
